<svg width="18" height="16" viewBox="0 0 18 16" fill="none" xmlns="http://www.w3.org/2000/svg">
<path d="M17.0304 10.4698C16.8898 10.3291 16.6991 10.2502 16.5002 10.2502C16.3013 10.2502 16.1106 10.3291 15.9699 10.4698L13.5002 12.9395V1.25C13.5002 1.05109 13.4212 0.860322 13.2805 0.71967C13.1399 0.579018 12.9491 0.5 12.7502 0.5C12.5513 0.5 12.3605 0.579018 12.2199 0.71967C12.0792 0.860322 12.0002 1.05109 12.0002 1.25V12.9395L9.53044 10.4698C9.38899 10.3331 9.19954 10.2575 9.00289 10.2592C8.80624 10.261 8.61813 10.3398 8.47908 10.4789C8.34002 10.6179 8.26114 10.8061 8.25944 11.0027C8.25773 11.1993 8.33332 11.3888 8.46994 11.5303L12.2199 15.2803C12.2896 15.3501 12.3724 15.4055 12.4635 15.4433C12.5546 15.4811 12.6523 15.5006 12.7509 15.5006C12.8496 15.5006 12.9473 15.4811 13.0384 15.4433C13.1295 15.4055 13.2123 15.3501 13.2819 15.2803L17.0319 11.5303C17.1723 11.3894 17.2511 11.1986 17.2508 10.9997C17.2505 10.8008 17.1712 10.6102 17.0304 10.4698ZM9.53044 4.46975L5.78044 0.71975C5.71059 0.649761 5.62747 0.594428 5.53594 0.557C5.35247 0.481162 5.14641 0.481162 4.96294 0.557C4.87142 0.594428 4.78829 0.649761 4.71844 0.71975L0.968441 4.46975C0.82781 4.61058 0.748883 4.80151 0.749024 5.00053C0.749164 5.19955 0.828361 5.39037 0.969191 5.531C1.11002 5.67163 1.30095 5.75056 1.49997 5.75042C1.69899 5.75028 1.88981 5.67108 2.03044 5.53025L4.50019 3.0605V14.75C4.50019 14.9489 4.57921 15.1397 4.71986 15.2803C4.86051 15.421 5.05128 15.5 5.25019 15.5C5.4491 15.5 5.63987 15.421 5.78052 15.2803C5.92117 15.1397 6.00019 14.9489 6.00019 14.75V3.0605L8.46994 5.53025C8.61139 5.66687 8.80084 5.74246 8.99749 5.74076C9.19414 5.73905 9.38225 5.66017 9.52131 5.52111C9.66036 5.38206 9.73924 5.19395 9.74095 4.9973C9.74266 4.80065 9.66706 4.6112 9.53044 4.46975Z" fill="black"/>
</svg>
