<svg width="170" height="168" viewBox="0 0 170 168" fill="none" xmlns="http://www.w3.org/2000/svg">
<path d="M17 16.8023H34V33.6023H17V16.8023ZM119 0.00233078V8.40233H110.5V16.8023H119V50.4023H127.5V58.8023H119V67.2023H136V50.4023H161.5V58.8023H170V0.00233078H119ZM161.5 42.0023H127.5V8.40233H161.5V42.0023Z" fill="black"/>
<path d="M136 16.8046H153V33.6046H136V16.8046ZM17 134.405H34V151.205H17V134.405ZM119 117.605H127.5V126.005H119V117.605ZM76.5 159.605H85V168.005H76.5V159.605ZM85 126.005H93.5V134.405H85V126.005ZM85 142.805H93.5V151.205H85V142.805ZM161.5 100.805H170V109.205H161.5V100.805ZM0 100.805H8.5V109.205H0V100.805ZM0 58.8046H8.5V67.2046H0V58.8046ZM93.5 8.4046V16.8046H76.5V25.2046H102V8.4046H93.5Z" fill="black"/>
<path d="M161.5 67.2046V75.6046H144.5V84.0046H119V75.6046H110.5V84.0046H93.5V92.4046H119V100.805H93.5V92.4046H85V100.805H76.5V92.4046H68V100.805H59.5V109.205H76.5V117.605H85V109.205H102V117.605H93.5V126.005H102V142.805H110.5V151.205H119V142.805H144.5V126.005H153V117.605H144.5V100.805H127.5V92.4046H144.5V100.805H153V92.4046H161.5V84.0046H170V67.2046H161.5ZM136 109.205V134.405H110.5V109.205H136ZM110.5 50.4046H102V58.8046H93.5V75.6046H102V67.2046H110.5V58.8046H119V50.4046H110.5ZM93.5 159.605H110.5V168.005H93.5V159.605ZM68 8.4046H76.5V16.8046H68V8.4046Z" fill="black"/>
<path d="M136 67.2008H144.5V75.6008H136V67.2008ZM144.5 58.8008H153V67.2008H144.5V58.8008ZM34 100.801H42.5V109.201H34V100.801ZM51 159.601V126.001H59.5V109.201H51V117.601H25.5V109.201H8.5V117.601H0V168.001H68V159.601H51ZM42.5 159.601H8.5V126.001H42.5V159.601ZM51 50.4008H59.5V58.8008H51V50.4008Z" fill="black"/>
<path d="M59.5 0.00195312H0V50.402H8.5V58.8019H17V50.402H25.5V58.8019H34V50.402H51V33.602H59.5V25.202H51V8.40195H68V0.00195312H59.5ZM42.5 42.0019H8.5V8.40195H42.5V42.0019ZM102 25.202H110.5V33.602H102V25.202ZM85 0.00195312H93.5V8.40195H85V0.00195312Z" fill="black"/>
<path d="M102 50.4001V42.0001H93.5V33.6001H85V42.0001H68V33.6001H59.5V50.4001H68V67.2001H42.5V58.8001H34V67.2001H8.5V75.6001H25.5V84.0001H0V92.4001H25.5V100.8H34V92.4001H42.5V100.8H51V92.4001H68V84.0001H59.5V75.6001H76.5V84.0001H93.5V75.6001H85V67.2001H76.5V50.4001H102ZM51 84.0001H34V75.6001H51V84.0001ZM76.5 134.4V117.6H68V126H59.5V134.4H68V142.8H59.5V151.2H76.5V142.8H85V134.4H76.5ZM153 151.2V142.8H144.5V151.2H119V159.6H136V168H144.5V159.6H161.5V168H170V151.2H153ZM161.5 117.6V126H153V134.4H170V117.6H161.5Z" fill="black"/>
</svg>
