<svg width="323" height="74" viewBox="0 0 323 74" fill="none" xmlns="http://www.w3.org/2000/svg">
<g clip-path="url(#clip0_524_7264)">
<path d="M45.7642 27.1751C44.5776 22.7412 46.3198 19.494 49.6965 17.5468C53.7258 15.2219 57.1942 17.0451 59.0065 18.453C54.5888 16.0364 45.3813 22.1479 45.7642 27.1751Z" fill="white"/>
<path d="M80.7119 33.4162C80.7119 35.8004 80.5016 38.136 80.1024 40.4015C79.0128 46.6208 76.4884 52.3492 72.8798 57.2254C71.8064 58.6818 70.6305 60.0626 69.3683 61.3572C69.2389 61.4921 69.1094 61.6269 68.9746 61.751C67.4427 61.8643 65.8784 60.6668 66.0456 58.8328C66.8439 50.3426 65.2851 43.6271 64.1361 40.0347C63.9959 39.6193 63.8718 39.2418 63.7478 38.9127C66.229 34.1336 65.4037 24.9422 63.4619 20.6486C61.0292 15.2762 54.6966 12.892 49.3134 15.3247C43.9409 17.7736 41.5568 24.0954 43.9949 29.4678C46.05 33.9934 53.0137 41.162 58.3645 41.8902C59.206 46.788 60.1338 59.205 51.5087 71.978C51.498 71.9942 51.4872 72.0104 51.4764 72.0266C51.293 72.0805 51.1096 72.1291 50.9262 72.1776C47.6358 73.0568 44.1729 73.5207 40.6074 73.5207C18.7994 73.5207 1.05854 56.1196 0.508347 34.4519C0.502953 34.1552 0.497559 33.8531 0.497559 33.5565C0.497559 33.1303 0.502953 32.7042 0.519135 32.2835C0.529923 31.8735 0.551499 31.4636 0.573075 31.059C0.594651 30.6653 0.627015 30.2715 0.659379 29.8831C1.75976 17.7736 8.2056 7.2175 17.6236 0.588256C19.4359 1.3596 20.4716 3.60351 19.4252 5.61548C11.62 20.7133 13.8154 34.0257 14.6299 37.6128L14.3656 37.7099C12.4615 38.4488 11.4636 40.477 12.154 42.2085L17.8663 56.837C18.0605 57.3333 18.6592 57.5706 19.204 57.3549L19.3227 57.3063C20.148 56.9827 20.5687 56.125 20.2828 55.3806L16.5501 45.8494C16.3236 45.2777 16.6526 44.6142 17.2945 44.3715C17.9148 44.1233 18.6107 44.3876 18.8318 44.9648L22.5753 54.523C22.9097 55.3806 23.9615 55.796 24.9163 55.413C25.8602 55.0408 26.3672 54.0375 26.0112 53.1637L22.2894 43.6055C22.0574 43.0337 22.3919 42.3757 23.0122 42.1276C23.6541 41.8848 24.3391 42.1491 24.5656 42.7263L28.2821 52.2521C28.5788 52.9965 29.4742 53.3417 30.2995 53.0181L30.4235 52.9749C30.9629 52.7592 31.2434 52.1874 31.0493 51.6804L25.337 37.0626C24.6573 35.3149 22.5645 34.5058 20.6496 35.2556L20.2396 35.4174C20.0778 31.6362 20.3961 20.6863 28.3361 9.87135C29.9974 7.60587 32.9102 6.57022 35.6072 7.36853C38.164 8.1183 39.8631 8.18303 39.8631 8.18303H39.9871C39.9871 8.18303 46.7998 7.92411 53.6664 2.41143C55.9642 0.555892 59.3678 -0.377273 63.0142 0.145947C63.0358 0.162129 63.0627 0.178311 63.0843 0.194493C73.7213 7.40629 80.7119 19.5914 80.7119 33.4162Z" fill="white"/>
<path d="M59.0065 18.453C54.5888 16.0364 45.3813 22.1479 45.7642 27.1751C44.5776 22.7412 46.3198 19.494 49.6965 17.5468C53.7258 15.2219 57.1942 17.0451 59.0065 18.453Z" fill="white"/>
</g>
<path d="M134.072 19.3381V55.3256H126.828V31.9183L117.153 55.3256H111.668L101.941 31.9183V55.3256H94.6973V19.3381H102.924L114.411 46.0967L125.897 19.3381H134.072Z" fill="white"/>
<path d="M154.432 55.3256C151.431 55.3256 148.809 54.7585 146.567 53.6242C144.36 52.4556 142.635 50.8744 141.393 48.8809C140.186 46.8873 139.582 44.6531 139.582 42.1783C139.582 39.3942 140.151 36.971 141.29 34.9086C142.428 32.8463 143.98 31.248 145.946 30.1137C147.913 28.9795 150.137 28.4123 152.621 28.4123C155.588 28.4123 157.985 29.031 159.813 30.2684C161.676 31.5058 163.038 33.1728 163.901 35.2695C164.763 37.3319 165.194 39.6348 165.194 42.1783C165.194 42.522 165.177 42.9345 165.142 43.4157C165.108 43.8625 165.056 44.2063 164.987 44.4469H147.137C147.412 45.5124 147.878 46.4061 148.534 47.1279C149.223 47.8497 150.068 48.3997 151.069 48.7778C152.104 49.1215 153.259 49.2933 154.535 49.2933H161.883V55.3256H154.432ZM147.085 39.7035H158.106C158.037 39.0505 157.916 38.4489 157.743 37.899C157.571 37.3147 157.329 36.7991 157.019 36.3523C156.709 35.9054 156.346 35.5273 155.932 35.218C155.519 34.9086 155.036 34.668 154.484 34.4962C153.932 34.3243 153.328 34.2384 152.673 34.2384C151.81 34.2384 151.034 34.393 150.344 34.7024C149.689 35.0117 149.137 35.4242 148.689 35.9398C148.24 36.4554 147.878 37.0397 147.602 37.6928C147.361 38.3458 147.188 39.0161 147.085 39.7035Z" fill="white"/>
<path d="M170.4 55.3256V49.2933H183.283C183.697 49.2933 184.059 49.2074 184.37 49.0355C184.715 48.8637 184.973 48.6231 185.146 48.3137C185.353 48.0044 185.456 47.6607 185.456 47.2826C185.456 46.8701 185.353 46.5092 185.146 46.1998C184.973 45.8905 184.715 45.6499 184.37 45.478C184.059 45.2718 183.697 45.1687 183.283 45.1687H178.316C176.626 45.1687 175.091 44.9109 173.711 44.3953C172.366 43.8454 171.279 42.9861 170.451 41.8174C169.658 40.6144 169.261 39.0505 169.261 37.1256C169.261 35.6476 169.623 34.3071 170.348 33.1041C171.107 31.8667 172.107 30.8871 173.349 30.1653C174.625 29.4091 176.022 29.031 177.54 29.031H189.906V35.0633H178.212C177.695 35.0633 177.229 35.2352 176.815 35.5789C176.436 35.9226 176.246 36.3694 176.246 36.9194C176.246 37.4693 176.436 37.9334 176.815 38.3115C177.195 38.6552 177.661 38.827 178.212 38.827H183.18C185.077 38.827 186.715 39.1192 188.095 39.7035C189.475 40.2535 190.544 41.13 191.303 42.333C192.062 43.536 192.441 45.1171 192.441 47.0763C192.441 48.5887 192.062 49.9808 191.303 51.2525C190.544 52.4899 189.526 53.4867 188.25 54.2429C186.974 54.9647 185.542 55.3256 183.956 55.3256H170.4Z" fill="white"/>
<path d="M198.093 55.3256V17.6882H205.182V30.8871C206.286 29.9934 207.476 29.3575 208.752 28.9794C210.028 28.6014 211.287 28.4123 212.529 28.4123C215.082 28.4123 217.186 28.9451 218.841 30.0106C220.532 31.0761 221.791 32.5026 222.619 34.2899C223.446 36.0773 223.86 38.0537 223.86 40.2191V55.3256H216.772V40.2191C216.772 39.1536 216.513 38.1912 215.996 37.3319C215.478 36.4382 214.771 35.7336 213.874 35.218C213.012 34.7024 212.046 34.4446 210.977 34.4446C209.942 34.4446 208.976 34.7024 208.079 35.218C207.217 35.6992 206.51 36.3694 205.958 37.2287C205.441 38.0537 205.182 38.9817 205.182 40.0129V55.3256H198.093Z" fill="white"/>
<path d="M244.75 55.3256V19.235H259.91C262.291 19.235 264.446 19.7849 266.378 20.8848C268.344 21.9504 269.896 23.4456 271.035 25.3704C272.208 27.2952 272.794 29.5294 272.794 32.0729C272.794 34.5821 272.208 36.8163 271.035 38.7755C269.896 40.7003 268.344 42.2127 266.378 43.3126C264.446 44.3781 262.291 44.9109 259.91 44.9109H252.149V55.3256H244.75ZM252.149 38.4146H259.031C260.204 38.4146 261.273 38.174 262.239 37.6928C263.205 37.1772 263.964 36.4554 264.515 35.5273C265.102 34.5649 265.395 33.4134 265.395 32.0729C265.395 30.7324 265.102 29.5981 264.515 28.6701C263.964 27.7077 263.205 26.9859 262.239 26.5047C261.273 25.9891 260.204 25.7313 259.031 25.7313H252.149V38.4146Z" fill="white"/>
<path d="M277.285 55.3256V36.5069C277.285 34.1696 277.941 32.3479 279.251 31.0418C280.597 29.7013 282.442 29.031 284.788 29.031H292.083V35.0633H286.029C285.581 35.0633 285.184 35.218 284.839 35.5273C284.529 35.8367 284.374 36.232 284.374 36.7132V55.3256H277.285Z" fill="white"/>
<path d="M308.771 55.9443C306.046 55.9443 303.614 55.3428 301.476 54.1398C299.337 52.9024 297.647 51.2525 296.405 49.1902C295.163 47.0935 294.542 44.7562 294.542 42.1783C294.542 39.6004 295.163 37.2803 296.405 35.218C297.647 33.1213 299.337 31.4714 301.476 30.2684C303.614 29.031 306.046 28.4123 308.771 28.4123C311.496 28.4123 313.928 29.031 316.066 30.2684C318.205 31.4714 319.895 33.1213 321.137 35.218C322.379 37.2803 323 39.6004 323 42.1783C323 44.7562 322.379 47.0935 321.137 49.1902C319.895 51.2525 318.205 52.9024 316.066 54.1398C313.928 55.3428 311.496 55.9443 308.771 55.9443ZM308.771 49.912C310.22 49.912 311.462 49.5683 312.496 48.8809C313.566 48.1934 314.376 47.2654 314.928 46.0967C315.515 44.9281 315.808 43.6219 315.808 42.1783C315.808 40.7347 315.515 39.4286 314.928 38.2599C314.376 37.0913 313.566 36.1632 312.496 35.4758C311.462 34.7883 310.22 34.4446 308.771 34.4446C307.322 34.4446 306.063 34.7883 304.994 35.4758C303.959 36.1632 303.148 37.0913 302.562 38.2599C302.01 39.4286 301.734 40.7347 301.734 42.1783C301.734 43.6219 302.01 44.9281 302.562 46.0967C303.148 47.2654 303.959 48.1934 304.994 48.8809C306.063 49.5683 307.322 49.912 308.771 49.912Z" fill="white"/>
<defs>
<clipPath id="clip0_524_7264">
<rect width="80.2144" height="73.5204" fill="white" transform="translate(0.497559)"/>
</clipPath>
</defs>
</svg>
