<svg width="24" height="25" viewBox="0 0 24 25" fill="none" xmlns="http://www.w3.org/2000/svg">
<path fill-rule="evenodd" clip-rule="evenodd" d="M19.3846 8.73532C19.7976 8.76932 20.1056 9.13032 20.0726 9.54332C20.0666 9.61132 19.5246 16.3223 19.2126 19.1373C19.0186 20.8843 17.8646 21.9473 16.1226 21.9793C14.7896 22.0023 13.5036 22.0153 12.2466 22.0153C10.8916 22.0153 9.5706 22.0003 8.2636 21.9733C6.5916 21.9403 5.4346 20.8563 5.2456 19.1443C4.9306 16.3043 4.3916 9.61032 4.3866 9.54332C4.3526 9.13032 4.6606 8.76832 5.0736 8.73532C5.4806 8.72432 5.8486 9.01032 5.8816 9.42233C5.88479 9.46573 6.10514 12.1994 6.34526 14.904L6.39349 15.4438C6.51443 16.7881 6.63703 18.08 6.7366 18.9793C6.8436 19.9523 7.3686 20.4543 8.2946 20.4733C10.7946 20.5263 13.3456 20.5293 16.0956 20.4793C17.0796 20.4603 17.6116 19.9683 17.7216 18.9723C18.0316 16.1783 18.5716 9.49032 18.5776 9.42233C18.6106 9.01032 18.9756 8.72232 19.3846 8.73532ZM14.3454 2.01562C15.2634 2.01562 16.0704 2.63462 16.3074 3.52162L16.5614 4.78262C16.6435 5.196 17.0062 5.49788 17.4263 5.50451L20.708 5.50463C21.122 5.50463 21.458 5.84062 21.458 6.25462C21.458 6.66862 21.122 7.00462 20.708 7.00462L17.4556 7.00447C17.4505 7.00457 17.4455 7.00462 17.4404 7.00462L17.416 7.00362L7.04162 7.0045C7.03355 7.00458 7.02548 7.00462 7.0174 7.00462L7.002 7.00362L3.75 7.00462C3.336 7.00462 3 6.66862 3 6.25462C3 5.84062 3.336 5.50463 3.75 5.50463L7.031 5.50363L7.13202 5.49723C7.50831 5.44841 7.82104 5.16262 7.8974 4.78262L8.1404 3.56662C8.3874 2.63463 9.1944 2.01562 10.1124 2.01562H14.3454ZM14.3454 3.51562H10.1124C9.8724 3.51562 9.6614 3.67663 9.6004 3.90762L9.3674 5.07763C9.33779 5.22582 9.29467 5.36864 9.23948 5.50489H15.2186C15.1634 5.36864 15.1201 5.22582 15.0904 5.07763L14.8474 3.86162C14.7964 3.67663 14.5854 3.51562 14.3454 3.51562Z" fill="#0A94F1"/>
</svg>
