<svg width="20" height="17" viewBox="0 0 20 17" fill="none" xmlns="http://www.w3.org/2000/svg">
<path fill-rule="evenodd" clip-rule="evenodd" d="M10.0028 0.015625C14.1388 0.018625 17.8527 2.91762 19.9387 7.77162C20.0208 7.96062 20.0208 8.17463 19.9387 8.36363C17.8537 13.2186 14.1388 16.1176 10.0028 16.1206H9.99675C5.86075 16.1176 2.14675 13.2186 0.06075 8.36363C-0.02025 8.17463 -0.02025 7.96062 0.06075 7.77162C2.14675 2.91762 5.86175 0.018625 9.99675 0.015625H10.0028ZM9.99975 1.51562C6.56375 1.51663 3.42975 3.95963 1.56975 8.06763C3.42975 12.1766 6.56275 14.6196 9.99975 14.6206C13.4368 14.6196 16.5697 12.1766 18.4297 8.06763C16.5697 3.95963 13.4368 1.51663 9.99975 1.51562ZM9.99945 4.15642C12.1565 4.15642 13.9115 5.91143 13.9115 8.06843C13.9115 10.2244 12.1565 11.9784 9.99945 11.9784C7.84245 11.9784 6.08845 10.2244 6.08845 8.06843C6.08845 5.91143 7.84245 4.15642 9.99945 4.15642ZM9.99945 5.65642C8.66945 5.65642 7.58845 6.73843 7.58845 8.06843C7.58845 9.39742 8.66945 10.4784 9.99945 10.4784C11.3295 10.4784 12.4115 9.39742 12.4115 8.06843C12.4115 6.73843 11.3295 5.65642 9.99945 5.65642Z" fill="#0A94F1"/>
</svg>
